<svg id="visual" viewBox="0 0 400 800" width="400" height="800" xmlns="http://www.w3.org/2000/svg" xmlns:xlink="http://www.w3.org/1999/xlink" version="1.1"><path d="M0 57L9.5 59C19 61 38 65 57 59.7C76 54.3 95 39.7 114 30C133 20.3 152 15.7 171.2 20.2C190.3 24.7 209.7 38.3 228.8 41C248 43.7 267 35.3 286 35.8C305 36.3 324 45.7 343 50.5C362 55.3 381 55.7 390.5 55.8L400 56L400 0L390.5 0C381 0 362 0 343 0C324 0 305 0 286 0C267 0 248 0 228.8 0C209.7 0 190.3 0 171.2 0C152 0 133 0 114 0C95 0 76 0 57 0C38 0 19 0 9.5 0L0 0Z" fill="#ffffff" stroke-linecap="round" stroke-linejoin="miter"></path></svg>