<svg id="visual" viewBox="0 0 1400 900" width="1400" height="900" xmlns="http://www.w3.org/2000/svg" xmlns:xlink="http://www.w3.org/1999/xlink" version="1.1"><path d="M0 40L21.2 42.7C42.3 45.3 84.7 50.7 127.2 47C169.7 43.3 212.3 30.7 254.8 23.7C297.3 16.7 339.7 15.3 382 21.8C424.3 28.3 466.7 42.7 509 52.5C551.3 62.3 593.7 67.7 636.2 66.7C678.7 65.7 721.3 58.3 763.8 58.2C806.3 58 848.7 65 891 66.3C933.3 67.7 975.7 63.3 1018 54.3C1060.3 45.3 1102.7 31.7 1145.2 35C1187.7 38.3 1230.3 58.7 1272.8 61.5C1315.3 64.3 1357.7 49.7 1378.8 42.3L1400 35L1400 0L1378.8 0C1357.7 0 1315.3 0 1272.8 0C1230.3 0 1187.7 0 1145.2 0C1102.7 0 1060.3 0 1018 0C975.7 0 933.3 0 891 0C848.7 0 806.3 0 763.8 0C721.3 0 678.7 0 636.2 0C593.7 0 551.3 0 509 0C466.7 0 424.3 0 382 0C339.7 0 297.3 0 254.8 0C212.3 0 169.7 0 127.2 0C84.7 0 42.3 0 21.2 0L0 0Z" fill="#003464" stroke-linecap="round" stroke-linejoin="miter"></path></svg>