<svg id="visual" viewBox="0 0 1400 900" width="1400" height="900" xmlns="http://www.w3.org/2000/svg" xmlns:xlink="http://www.w3.org/1999/xlink" version="1.1"><path d="M0 128L29.2 108C58.3 88 116.7 48 175 46.5C233.3 45 291.7 82 350 85.2C408.3 88.3 466.7 57.7 525 43.8C583.3 30 641.7 33 700 45.5C758.3 58 816.7 80 875 76.5C933.3 73 991.7 44 1050 31C1108.3 18 1166.7 21 1225 36.8C1283.3 52.7 1341.7 81.3 1370.8 95.7L1400 110L1400 0L1370.8 0C1341.7 0 1283.3 0 1225 0C1166.7 0 1108.3 0 1050 0C991.7 0 933.3 0 875 0C816.7 0 758.3 0 700 0C641.7 0 583.3 0 525 0C466.7 0 408.3 0 350 0C291.7 0 233.3 0 175 0C116.7 0 58.3 0 29.2 0L0 0Z" fill="#ffffff" stroke-linecap="round" stroke-linejoin="miter"></path></svg>