<svg id="visual" viewBox="0 0 700 1000" width="700" height="1000" xmlns="http://www.w3.org/2000/svg" xmlns:xlink="http://www.w3.org/1999/xlink" version="1.1"><path d="M0 87L14.7 81.7C29.3 76.3 58.7 65.7 87.8 55.7C117 45.7 146 36.3 175.2 37.8C204.3 39.3 233.7 51.7 262.8 62.2C292 72.7 321 81.3 350.2 79.5C379.3 77.7 408.7 65.3 437.8 54.2C467 43 496 33 525.2 31.3C554.3 29.7 583.7 36.3 612.8 47.7C642 59 671 75 685.5 83L700 91L700 0L685.5 0C671 0 642 0 612.8 0C583.7 0 554.3 0 525.2 0C496 0 467 0 437.8 0C408.7 0 379.3 0 350.2 0C321 0 292 0 262.8 0C233.7 0 204.3 0 175.2 0C146 0 117 0 87.8 0C58.7 0 29.3 0 14.7 0L0 0Z" fill="#ffffff" stroke-linecap="round" stroke-linejoin="miter"></path></svg>