<svg id="visual" viewBox="0 0 700 1000" width="700" height="1000" xmlns="http://www.w3.org/2000/svg" xmlns:xlink="http://www.w3.org/1999/xlink" version="1.1"><path d="M0 30L14.7 33.3C29.3 36.7 58.7 43.3 87.8 51.2C117 59 146 68 175.2 65.3C204.3 62.7 233.7 48.3 262.8 45C292 41.7 321 49.3 350.2 51.7C379.3 54 408.7 51 437.8 47.7C467 44.3 496 40.7 525.2 43.2C554.3 45.7 583.7 54.3 612.8 55C642 55.7 671 48.3 685.5 44.7L700 41L700 0L685.5 0C671 0 642 0 612.8 0C583.7 0 554.3 0 525.2 0C496 0 467 0 437.8 0C408.7 0 379.3 0 350.2 0C321 0 292 0 262.8 0C233.7 0 204.3 0 175.2 0C146 0 117 0 87.8 0C58.7 0 29.3 0 14.7 0L0 0Z" fill="#003464" stroke-linecap="round" stroke-linejoin="miter"></path></svg>