<svg id="visual" viewBox="0 0 400 800" width="400" height="800" xmlns="http://www.w3.org/2000/svg" xmlns:xlink="http://www.w3.org/1999/xlink" version="1.1"><path d="M0 85L11.2 87.7C22.3 90.3 44.7 95.7 66.8 97.7C89 99.7 111 98.3 133.2 91.2C155.3 84 177.7 71 200 71C222.3 71 244.7 84 266.8 88.2C289 92.3 311 87.7 333.2 87.3C355.3 87 377.7 91 388.8 93L400 95L400 0L388.8 0C377.7 0 355.3 0 333.2 0C311 0 289 0 266.8 0C244.7 0 222.3 0 200 0C177.7 0 155.3 0 133.2 0C111 0 89 0 66.8 0C44.7 0 22.3 0 11.2 0L0 0Z" fill="#003464" stroke-linecap="round" stroke-linejoin="miter"></path></svg>