<svg width="518" height="214" viewBox="0 0 518 214" fill="none" xmlns="http://www.w3.org/2000/svg">
<path d="M11.1 28.8H100.35V53.55H44.25V67.8H92.25V91.5H44.25V107.25H101.4V132H11.1V28.8Z" fill="#003464"/>
<path d="M210.05 60.45C210.05 66.75 208.35 72.45 204.95 77.55C201.55 82.65 196.6 86.4 190.1 88.8L213.05 132H175.85L157.55 94.35H145.25V132H112.1V28.8H175.25C182.65 28.8 188.95 30.25 194.15 33.15C199.45 35.95 203.4 39.8 206 44.7C208.7 49.5 210.05 54.75 210.05 60.45ZM176.3 61.8C176.3 59.1 175.4 56.85 173.6 55.05C171.8 53.25 169.6 52.35 167 52.35H145.25V71.4H167C169.6 71.4 171.8 70.5 173.6 68.7C175.4 66.8 176.3 64.5 176.3 61.8Z" fill="#003464"/>
<path d="M427.9 132L384.55 81.9V132H354.1V28.8H383.05L426.4 79.65V28.8H456.85V132H427.9Z" fill="#003464"/>
<path d="M283 29L343.622 132.5H222.378L283 29Z" fill="#003464"/>
<line x1="54" y1="150.5" x2="405" y2="150.5" stroke="#003464" stroke-width="5"/>
<line x1="101" y1="160.5" x2="353" y2="160.5" stroke="#003464" stroke-width="5"/>
<path d="M203.531 186.633C197.867 194.237 192.932 198.039 188.727 198.039C186.682 198.039 185.38 197.492 184.82 196.398C184.664 196.086 184.586 195.767 184.586 195.441C184.586 195.103 184.645 194.829 184.762 194.621C184.879 194.413 185.029 194.243 185.211 194.113C185.536 193.866 185.94 193.742 186.422 193.742C186.617 193.742 186.832 193.814 187.066 193.957C187.288 194.1 187.398 194.315 187.398 194.602C187.398 194.888 187.288 195.129 187.066 195.324C186.845 195.52 186.565 195.617 186.227 195.617C185.875 195.617 185.589 195.552 185.367 195.422V195.52C185.367 196.105 185.647 196.581 186.207 196.945C186.754 197.31 187.411 197.492 188.18 197.492C188.935 197.492 189.566 197.44 190.074 197.336C190.582 197.219 191.103 197.01 191.637 196.711C192.184 196.398 192.763 195.969 193.375 195.422C194 194.875 194.69 194.172 195.445 193.312C196.214 192.44 197.073 191.385 198.023 190.148L201.285 185.773C200.556 185.292 200.191 184.719 200.191 184.055C200.191 183.495 200.445 183.013 200.953 182.609C201.422 182.232 201.884 182.043 202.34 182.043C202.809 182.043 203.043 182.108 203.043 182.238C203.043 182.303 202.965 182.355 202.809 182.395C202.197 182.499 201.734 182.74 201.422 183.117C201.122 183.482 200.973 183.866 200.973 184.27C200.973 184.673 201.188 185.018 201.617 185.305L201.891 184.934C204.026 182.056 205.784 179.914 207.164 178.508C209.391 176.216 211.565 174.341 213.688 172.883L214.488 172.355C212.978 171.431 210.654 170.969 207.516 170.969C204.365 170.969 201.305 171.581 198.336 172.805C195.628 173.911 193.421 175.376 191.715 177.199C190.035 178.983 189.221 180.741 189.273 182.473C189.299 183.449 189.612 184.191 190.211 184.699C190.706 185.116 191.311 185.324 192.027 185.324C192.743 185.324 193.499 185.116 194.293 184.699C195.1 184.283 195.875 183.749 196.617 183.098C197.359 182.434 198.056 181.698 198.707 180.891C199.371 180.07 199.951 179.257 200.445 178.449C201.513 176.73 202.105 175.389 202.223 174.426C202.262 173.983 202.34 173.762 202.457 173.762C202.587 173.762 202.659 173.814 202.672 173.918C202.685 174.009 202.698 174.296 202.711 174.777C202.724 175.259 202.626 175.93 202.418 176.789C202.21 177.648 201.891 178.508 201.461 179.367C201.044 180.214 200.517 181.027 199.879 181.809C199.254 182.59 198.538 183.28 197.73 183.879C195.96 185.194 194.007 185.852 191.871 185.852C191.077 185.852 190.367 185.552 189.742 184.953C189.052 184.289 188.694 183.462 188.668 182.473C188.629 181.483 188.857 180.487 189.352 179.484C189.846 178.482 190.536 177.538 191.422 176.652C192.32 175.754 193.375 174.934 194.586 174.191C195.81 173.436 197.125 172.792 198.531 172.258C201.5 171.112 204.521 170.539 207.594 170.539C210.68 170.539 213.199 171.014 215.152 171.965C216.728 171.092 217.906 170.656 218.688 170.656C218.935 170.656 219.059 170.708 219.059 170.812C219.072 170.917 219.046 170.995 218.98 171.047C218.928 171.099 218.74 171.151 218.414 171.203C217.646 171.346 216.793 171.724 215.855 172.336C217.952 173.573 219 175.266 219 177.414C219 179.003 218.388 180.546 217.164 182.043C215.979 183.475 214.423 184.641 212.496 185.539C210.517 186.451 208.479 186.906 206.383 186.906C205.354 186.906 204.404 186.815 203.531 186.633ZM203.902 186.145C204.723 186.314 205.497 186.398 206.227 186.398C206.969 186.398 207.73 186.301 208.512 186.105C209.306 185.91 210.081 185.624 210.836 185.246C211.604 184.855 212.34 184.374 213.043 183.801C213.746 183.228 214.365 182.557 214.898 181.789C216.07 180.122 216.656 178.241 216.656 176.145C216.656 174.764 216.155 173.658 215.152 172.824C213.72 173.866 212.229 175.305 210.68 177.141C209.13 178.977 207.841 180.624 206.812 182.082L203.902 186.145ZM221.715 198.039C220.413 198.039 219.762 197.635 219.762 196.828C219.762 196.164 220.139 195.331 220.895 194.328L222.125 192.766L221.93 192.688C219.742 195.383 217.678 197.076 215.738 197.766C215.204 197.948 214.742 198.039 214.352 198.039C212.75 198.039 211.949 197.186 211.949 195.48C211.949 193.475 212.75 191.561 214.352 189.738C216.721 186.978 219.104 185.344 221.5 184.836C222.216 184.693 222.828 184.621 223.336 184.621C223.844 184.621 224.241 184.66 224.527 184.738C224.827 184.803 225.087 184.901 225.309 185.031C225.777 185.331 226.012 185.702 226.012 186.145C226.012 186.574 225.934 186.984 225.777 187.375L227.691 185.012C228.043 185.116 228.368 185.168 228.668 185.168C229.436 185.168 229.99 185.142 230.328 185.09L223.746 193.02C222.184 194.842 221.402 196.125 221.402 196.867C221.402 197.284 221.65 197.492 222.145 197.492C222.639 197.492 223.206 197.342 223.844 197.043C224.495 196.743 225.139 196.359 225.777 195.891C226.415 195.422 227.034 194.901 227.633 194.328C228.245 193.755 228.805 193.195 229.312 192.648C229.833 192.102 230.289 191.594 230.68 191.125L231.617 190.07L232.027 190.402L231.031 191.535C227.281 195.871 224.176 198.039 221.715 198.039ZM216.305 191.008C214.469 193.234 213.551 195.057 213.551 196.477C213.551 197.128 213.844 197.453 214.43 197.453C216.331 197.453 219.072 195.35 222.652 191.145L224.293 189.172C225.074 187.987 225.465 187.128 225.465 186.594C225.465 185.682 225.009 185.227 224.098 185.227C222.861 185.227 221.083 186.281 218.766 188.391C217.971 189.12 217.151 189.992 216.305 191.008ZM237.516 194.406C237.672 194.432 237.867 194.445 238.102 194.445C238.349 194.445 238.642 194.354 238.98 194.172C239.319 193.99 239.664 193.755 240.016 193.469C240.38 193.182 240.738 192.87 241.09 192.531C241.441 192.18 241.76 191.848 242.047 191.535C242.346 191.21 242.607 190.917 242.828 190.656L243.277 190.07L243.707 190.402C243.551 190.559 243.349 190.773 243.102 191.047L242.281 191.984C240.471 193.938 239.039 194.914 237.984 194.914H237.652C237.548 194.914 237.444 194.901 237.34 194.875C236.246 197.258 233.922 198.449 230.367 198.449C228.818 198.449 227.691 198.078 226.988 197.336C226.689 197.01 226.539 196.594 226.539 196.086C226.539 195.578 226.663 195.148 226.91 194.797C227.145 194.432 227.424 194.133 227.75 193.898C228.414 193.417 229.013 193.176 229.547 193.176C230.068 193.176 230.328 193.423 230.328 193.918C230.289 194.257 230.003 194.51 229.469 194.68C229.299 194.732 229.137 194.758 228.98 194.758C228.811 194.758 228.655 194.706 228.512 194.602C228.355 194.484 228.232 194.4 228.141 194.348C228.062 194.426 227.965 194.517 227.848 194.621C227.717 194.725 227.594 194.849 227.477 194.992C227.19 195.344 227.047 195.708 227.047 196.086C227.047 196.451 227.171 196.743 227.418 196.965C227.665 197.186 227.958 197.355 228.297 197.473C228.805 197.655 229.339 197.746 229.898 197.746C230.445 197.746 231.012 197.629 231.598 197.395C232.197 197.16 232.783 196.77 233.355 196.223C234.931 194.725 235.784 192.505 235.914 189.562C235.992 187.583 236.233 186.034 236.637 184.914C236.65 184.875 236.656 184.816 236.656 184.738L232.047 190.402C231.786 190.715 231.598 190.917 231.48 191.008C231.35 191.099 231.285 191.145 231.285 191.145C231.129 191.158 231.025 191.118 230.973 191.027C230.947 190.962 231.005 190.839 231.148 190.656C234.508 186.646 236.396 184.367 236.812 183.82C237.021 182.805 237.359 182.297 237.828 182.297C238.049 182.297 238.232 182.355 238.375 182.473C238.531 182.59 238.609 182.74 238.609 182.922C238.596 183.169 238.395 183.521 238.004 183.977C237.626 184.419 237.392 184.706 237.301 184.836C237.223 184.953 237.171 185.057 237.145 185.148C237.118 185.227 237.105 185.305 237.105 185.383V185.617C237.092 185.969 237.125 186.385 237.203 186.867L237.691 190.109C237.978 191.88 237.919 193.312 237.516 194.406ZM249.156 194.406C249.312 194.432 249.508 194.445 249.742 194.445C249.99 194.445 250.283 194.354 250.621 194.172C250.96 193.99 251.305 193.755 251.656 193.469C252.021 193.182 252.379 192.87 252.73 192.531C253.082 192.18 253.401 191.848 253.688 191.535C253.987 191.21 254.247 190.917 254.469 190.656L254.918 190.07L255.348 190.402C255.191 190.559 254.99 190.773 254.742 191.047L253.922 191.984C252.112 193.938 250.68 194.914 249.625 194.914H249.293C249.189 194.914 249.085 194.901 248.98 194.875C247.887 197.258 245.562 198.449 242.008 198.449C240.458 198.449 239.332 198.078 238.629 197.336C238.329 197.01 238.18 196.594 238.18 196.086C238.18 195.578 238.303 195.148 238.551 194.797C238.785 194.432 239.065 194.133 239.391 193.898C240.055 193.417 240.654 193.176 241.188 193.176C241.708 193.176 241.969 193.423 241.969 193.918C241.93 194.257 241.643 194.51 241.109 194.68C240.94 194.732 240.777 194.758 240.621 194.758C240.452 194.758 240.296 194.706 240.152 194.602C239.996 194.484 239.872 194.4 239.781 194.348C239.703 194.426 239.605 194.517 239.488 194.621C239.358 194.725 239.234 194.849 239.117 194.992C238.831 195.344 238.688 195.708 238.688 196.086C238.688 196.451 238.811 196.743 239.059 196.965C239.306 197.186 239.599 197.355 239.938 197.473C240.445 197.655 240.979 197.746 241.539 197.746C242.086 197.746 242.652 197.629 243.238 197.395C243.837 197.16 244.423 196.77 244.996 196.223C246.572 194.725 247.424 192.505 247.555 189.562C247.633 187.583 247.874 186.034 248.277 184.914C248.29 184.875 248.297 184.816 248.297 184.738L243.688 190.402C243.427 190.715 243.238 190.917 243.121 191.008C242.991 191.099 242.926 191.145 242.926 191.145C242.77 191.158 242.665 191.118 242.613 191.027C242.587 190.962 242.646 190.839 242.789 190.656C246.148 186.646 248.036 184.367 248.453 183.82C248.661 182.805 249 182.297 249.469 182.297C249.69 182.297 249.872 182.355 250.016 182.473C250.172 182.59 250.25 182.74 250.25 182.922C250.237 183.169 250.035 183.521 249.645 183.977C249.267 184.419 249.033 184.706 248.941 184.836C248.863 184.953 248.811 185.057 248.785 185.148C248.759 185.227 248.746 185.305 248.746 185.383V185.617C248.733 185.969 248.766 186.385 248.844 186.867L249.332 190.109C249.618 191.88 249.56 193.312 249.156 194.406ZM265.113 180.344C264.931 180.513 264.723 180.65 264.488 180.754C264.254 180.845 263.987 180.891 263.688 180.891C263.388 180.891 263.128 180.78 262.906 180.559C262.698 180.324 262.594 180.064 262.594 179.777C262.594 179.491 262.646 179.237 262.75 179.016C262.854 178.794 262.997 178.599 263.18 178.43C263.557 178.039 263.967 177.844 264.41 177.844C264.866 177.844 265.198 177.967 265.406 178.215C265.628 178.449 265.738 178.71 265.738 178.996C265.738 179.283 265.68 179.536 265.562 179.758C265.458 179.979 265.309 180.174 265.113 180.344ZM252.711 196.887C252.711 197.29 253.095 197.492 253.863 197.492C254.632 197.492 255.354 197.316 256.031 196.965C256.721 196.613 257.411 196.177 258.102 195.656C258.805 195.122 259.482 194.543 260.133 193.918L261.891 192.16C262.411 191.613 262.841 191.145 263.18 190.754C263.518 190.35 263.72 190.116 263.785 190.051L264.176 190.402C264.046 190.533 263.798 190.812 263.434 191.242C263.082 191.659 262.639 192.154 262.105 192.727C261.572 193.286 260.973 193.879 260.309 194.504C259.645 195.129 258.948 195.702 258.219 196.223C256.539 197.434 255.068 198.039 253.805 198.039C252.997 198.039 252.353 197.896 251.871 197.609C251.389 197.31 251.148 196.971 251.148 196.594C251.148 196.216 251.188 195.878 251.266 195.578C251.344 195.279 251.487 194.921 251.695 194.504C251.904 194.087 252.197 193.599 252.574 193.039C252.939 192.479 253.421 191.809 254.02 191.027C254.605 190.246 255.322 189.341 256.168 188.312L259.176 184.758C259.332 184.797 259.651 184.816 260.133 184.816H261.051C261.389 184.816 261.663 184.803 261.871 184.777C257.561 189.921 255.139 192.85 254.605 193.566C254.059 194.27 253.655 194.823 253.395 195.227C252.939 195.917 252.711 196.47 252.711 196.887ZM272.438 194.855C271.956 194.855 271.604 194.66 271.383 194.27C269.833 196.027 268.16 197.193 266.363 197.766C265.764 197.948 265.178 198.039 264.605 198.039C264.046 198.039 263.564 197.974 263.16 197.844C262.757 197.714 262.424 197.531 262.164 197.297C261.109 196.385 261.005 194.816 261.852 192.59C262.177 191.717 262.6 190.904 263.121 190.148C263.629 189.393 264.202 188.697 264.84 188.059C265.491 187.408 266.188 186.828 266.93 186.32C268.609 185.188 270.25 184.621 271.852 184.621C272.542 184.621 273.134 184.803 273.629 185.168C274.137 185.52 274.41 186.034 274.449 186.711C274.488 187.375 274.449 188 274.332 188.586C274.215 189.172 274.039 189.758 273.805 190.344C273.336 191.542 272.672 192.674 271.812 193.742C271.904 194.12 272.151 194.309 272.555 194.309C272.971 194.309 273.362 194.217 273.727 194.035C274.104 193.84 274.475 193.605 274.84 193.332C275.217 193.046 275.582 192.733 275.934 192.395C276.298 192.043 276.63 191.711 276.93 191.398L277.672 190.578C277.88 190.331 278.03 190.161 278.121 190.07L278.551 190.402C278.382 190.559 278.167 190.78 277.906 191.066C277.646 191.353 277.353 191.659 277.027 191.984C277.027 191.984 276.682 192.323 275.992 193C274.651 194.237 273.466 194.855 272.438 194.855ZM264.332 197.297C264.54 197.401 264.833 197.453 265.211 197.453C266.057 197.453 267.145 196.978 268.473 196.027C269.488 195.298 270.393 194.458 271.188 193.508V193.43C271.188 192.323 271.604 191.49 272.438 190.93C272.659 190.773 272.867 190.663 273.062 190.598C273.688 189.27 273.98 188.182 273.941 187.336C273.863 185.995 273.368 185.324 272.457 185.324C270.921 185.324 268.766 187.056 265.992 190.52C264.208 192.759 263.368 194.504 263.473 195.754C263.473 196.47 263.759 196.984 264.332 197.297ZM278.688 197.629C278.336 197.564 277.945 197.531 277.516 197.531C276.826 197.531 276.22 197.596 275.699 197.727L282.477 188.039C283.323 186.854 283.759 186.151 283.785 185.93C283.837 185.5 283.701 185.285 283.375 185.285C282.893 185.285 281.695 186.477 279.781 188.859L278.531 190.402C278.427 190.454 278.316 190.428 278.199 190.324C278.095 190.207 278.069 190.122 278.121 190.07C278.499 189.667 278.922 189.159 279.391 188.547C279.872 187.922 280.374 187.323 280.895 186.75C282.171 185.331 283.232 184.621 284.078 184.621C285.51 184.621 285.966 185.357 285.445 186.828C285.341 187.141 285.113 187.544 284.762 188.039L280.66 193.742L280.758 193.957C284.039 190.363 286.37 187.987 287.75 186.828C289.065 185.734 290.042 185.096 290.68 184.914C291.331 184.719 291.858 184.621 292.262 184.621C292.678 184.621 293.03 184.68 293.316 184.797C293.616 184.914 293.857 185.064 294.039 185.246C294.378 185.585 294.54 185.995 294.527 186.477C294.527 186.945 294.436 187.427 294.254 187.922C294.085 188.417 293.792 189.003 293.375 189.68C292.503 191.073 291.031 192.889 288.961 195.129C288.102 196.027 287.652 196.555 287.613 196.711C287.574 196.854 287.555 196.965 287.555 197.043C287.555 197.342 287.952 197.492 288.746 197.492C289.553 197.492 290.302 197.329 290.992 197.004C291.695 196.665 292.379 196.242 293.043 195.734C293.72 195.227 294.358 194.673 294.957 194.074C295.569 193.462 296.116 192.883 296.598 192.336C297.079 191.776 297.483 191.294 297.809 190.891C298.134 190.474 298.355 190.201 298.473 190.07L298.883 190.402C298.753 190.546 298.518 190.832 298.18 191.262C297.841 191.691 297.418 192.186 296.91 192.746C296.415 193.306 295.849 193.898 295.211 194.523C294.586 195.148 293.922 195.721 293.219 196.242C291.578 197.44 290.094 198.039 288.766 198.039C287.594 198.039 286.78 197.746 286.324 197.16C286.181 196.978 286.109 196.763 286.109 196.516C286.109 196.268 286.142 195.988 286.207 195.676C286.285 195.35 286.461 194.94 286.734 194.445C287.346 193.391 288.212 192.232 289.332 190.969C290.465 189.706 291.207 188.853 291.559 188.41C291.91 187.967 292.19 187.583 292.398 187.258C292.789 186.633 292.984 186.151 292.984 185.812C292.984 185.344 292.672 185.109 292.047 185.109C290.758 185.109 288.629 186.568 285.66 189.484C284.163 190.943 282.444 192.863 280.504 195.246L278.688 197.629ZM311.207 195.188C310.842 199.875 309.755 204.042 307.945 207.688C306.773 210.057 305.458 211.711 304 212.648C303.258 213.13 302.561 213.371 301.91 213.371C301.259 213.371 300.758 213.189 300.406 212.824C300.042 212.473 299.853 212.069 299.84 211.613C299.827 211.171 299.859 210.747 299.938 210.344C300.003 209.94 300.159 209.458 300.406 208.898C300.641 208.352 300.973 207.688 301.402 206.906C301.819 206.138 302.366 205.207 303.043 204.113L305.484 200.266L310.641 192.453C310.25 191.841 309.983 191.229 309.84 190.617C309.697 190.005 309.658 189.504 309.723 189.113C309.775 188.723 309.911 188.397 310.133 188.137C310.354 187.863 310.628 187.727 310.953 187.727C311.266 187.727 311.526 187.831 311.734 188.039C311.93 188.247 312.027 188.482 312.027 188.742C312.027 189.003 311.995 189.23 311.93 189.426C311.852 189.608 311.754 189.784 311.637 189.953C311.363 190.37 311.07 190.656 310.758 190.812C310.81 191.099 310.921 191.418 311.09 191.77L320.68 176.906C321.513 175.617 322.483 174.276 323.59 172.883C324.71 171.49 325.66 170.402 326.441 169.621C328.082 167.98 329.384 167.16 330.348 167.16C330.908 167.16 331.324 167.323 331.598 167.648C331.871 167.974 332.021 168.488 332.047 169.191C332.073 169.882 331.826 170.845 331.305 172.082C330.784 173.306 330.068 174.615 329.156 176.008C328.245 177.388 327.177 178.807 325.953 180.266C324.742 181.711 323.453 183.117 322.086 184.484C319.195 187.323 316.396 189.602 313.688 191.32L312.301 193.469C312.926 194.003 313.74 194.302 314.742 194.367C315.758 194.432 316.721 194.328 317.633 194.055C318.544 193.768 319.345 193.404 320.035 192.961C320.973 192.349 321.969 191.392 323.023 190.09L323.473 190.402C323.329 190.533 323.134 190.747 322.887 191.047C322.639 191.346 322.327 191.678 321.949 192.043C321.585 192.395 321.155 192.759 320.66 193.137C320.178 193.501 319.625 193.827 319 194.113C317.607 194.764 316.09 195.005 314.449 194.836C313.512 194.732 312.698 194.432 312.008 193.938L311.207 195.188ZM314.391 190.227C318.154 187.661 321.865 184.1 325.523 179.543C328.206 176.21 329.957 173.326 330.777 170.891C331.285 169.38 331.318 168.378 330.875 167.883C330.706 167.701 330.504 167.609 330.27 167.609C330.048 167.609 329.794 167.701 329.508 167.883C329.221 168.052 328.87 168.365 328.453 168.82C327.633 169.732 326.624 171.125 325.426 173L314.391 190.227ZM310.562 196.164L303.98 206.242L302.418 208.82C301.48 210.448 301.012 211.529 301.012 212.062C301.012 212.284 301.096 212.473 301.266 212.629C301.422 212.798 301.663 212.883 301.988 212.883C302.301 212.883 302.724 212.701 303.258 212.336C303.779 211.971 304.339 211.451 304.938 210.773C305.523 210.096 306.122 209.263 306.734 208.273C307.333 207.297 307.893 206.19 308.414 204.953C309.56 202.193 310.276 199.263 310.562 196.164ZM331.695 194.855C331.214 194.855 330.862 194.66 330.641 194.27C329.091 196.027 327.418 197.193 325.621 197.766C325.022 197.948 324.436 198.039 323.863 198.039C323.303 198.039 322.822 197.974 322.418 197.844C322.014 197.714 321.682 197.531 321.422 197.297C320.367 196.385 320.263 194.816 321.109 192.59C321.435 191.717 321.858 190.904 322.379 190.148C322.887 189.393 323.46 188.697 324.098 188.059C324.749 187.408 325.445 186.828 326.188 186.32C327.867 185.188 329.508 184.621 331.109 184.621C331.799 184.621 332.392 184.803 332.887 185.168C333.395 185.52 333.668 186.034 333.707 186.711C333.746 187.375 333.707 188 333.59 188.586C333.473 189.172 333.297 189.758 333.062 190.344C332.594 191.542 331.93 192.674 331.07 193.742C331.161 194.12 331.409 194.309 331.812 194.309C332.229 194.309 332.62 194.217 332.984 194.035C333.362 193.84 333.733 193.605 334.098 193.332C334.475 193.046 334.84 192.733 335.191 192.395C335.556 192.043 335.888 191.711 336.188 191.398L336.93 190.578C337.138 190.331 337.288 190.161 337.379 190.07L337.809 190.402C337.639 190.559 337.424 190.78 337.164 191.066C336.904 191.353 336.611 191.659 336.285 191.984C336.285 191.984 335.94 192.323 335.25 193C333.909 194.237 332.724 194.855 331.695 194.855ZM323.59 197.297C323.798 197.401 324.091 197.453 324.469 197.453C325.315 197.453 326.402 196.978 327.73 196.027C328.746 195.298 329.651 194.458 330.445 193.508V193.43C330.445 192.323 330.862 191.49 331.695 190.93C331.917 190.773 332.125 190.663 332.32 190.598C332.945 189.27 333.238 188.182 333.199 187.336C333.121 185.995 332.626 185.324 331.715 185.324C330.178 185.324 328.023 187.056 325.25 190.52C323.466 192.759 322.626 194.504 322.73 195.754C322.73 196.47 323.017 196.984 323.59 197.297ZM340.621 196.477C340.621 197.076 340.875 197.375 341.383 197.375C341.904 197.375 342.47 197.219 343.082 196.906C343.707 196.594 344.339 196.197 344.977 195.715C345.628 195.233 346.266 194.699 346.891 194.113L348.59 192.414C349.111 191.88 349.56 191.398 349.938 190.969L350.738 190.07L351.129 190.402C350.882 190.624 350.549 190.969 350.133 191.438L348.727 193C345.549 196.359 342.815 198.039 340.523 198.039C339.781 198.039 339.182 197.857 338.727 197.492C338.284 197.128 338.062 196.639 338.062 196.027C338.062 194.087 340.888 191.223 346.539 187.434C343.779 186.978 341.871 186.516 340.816 186.047C339.957 187.818 338.635 189.621 336.852 191.457C336.435 191.887 336.181 192.121 336.09 192.16C335.986 192.199 335.921 192.232 335.895 192.258C335.868 192.271 335.849 192.232 335.836 192.141C335.823 192.049 335.823 191.984 335.836 191.945C335.849 191.893 335.875 191.841 335.914 191.789C336.526 191.099 337.092 190.435 337.613 189.797C338.824 188.286 339.716 186.945 340.289 185.773C339.82 185.474 339.553 185.155 339.488 184.816C339.423 184.478 339.423 184.165 339.488 183.879C339.566 183.579 339.684 183.312 339.84 183.078C340.178 182.57 340.569 182.316 341.012 182.316C341.832 182.316 342.242 182.616 342.242 183.215C342.242 183.514 342.184 183.768 342.066 183.977L341.715 184.582C341.48 184.882 341.363 185.227 341.363 185.617C341.363 185.852 341.858 186.073 342.848 186.281C343.85 186.49 344.56 186.633 344.977 186.711C345.888 186.88 346.611 186.978 347.145 187.004C347.509 187.017 347.691 187.115 347.691 187.297C347.691 187.414 347.477 187.642 347.047 187.98C346.63 188.319 346.168 188.729 345.66 189.211C345.152 189.693 344.658 190.201 344.176 190.734C343.694 191.255 343.238 191.789 342.809 192.336C342.379 192.883 342.001 193.41 341.676 193.918C340.973 195.012 340.621 195.865 340.621 196.477ZM362.457 196.848C362.457 197.277 362.77 197.492 363.395 197.492C364.02 197.492 364.684 197.329 365.387 197.004C366.103 196.665 366.806 196.242 367.496 195.734C368.199 195.227 368.876 194.673 369.527 194.074C370.178 193.462 370.771 192.883 371.305 192.336L372.652 190.891C373.017 190.474 373.264 190.201 373.395 190.07L373.785 190.402C373.642 190.546 373.375 190.832 372.984 191.262C372.607 191.691 372.138 192.186 371.578 192.746C371.031 193.306 370.413 193.898 369.723 194.523C369.046 195.148 368.336 195.721 367.594 196.242C365.862 197.44 364.345 198.039 363.043 198.039C362.496 198.039 362.047 197.889 361.695 197.59C361.331 197.29 361.148 196.971 361.148 196.633C361.148 196.281 361.168 196.001 361.207 195.793C361.233 195.585 361.298 195.35 361.402 195.09C361.507 194.816 361.656 194.504 361.852 194.152C362.047 193.788 362.307 193.352 362.633 192.844L365.621 188.43L380.719 166.848C381.656 166.978 382.561 166.978 383.434 166.848C371.012 184.113 364.579 193.078 364.137 193.742C363.694 194.393 363.368 194.888 363.16 195.227C362.952 195.552 362.796 195.819 362.691 196.027C362.535 196.34 362.457 196.613 362.457 196.848ZM380.797 196.32C379.977 196.841 379.085 197.271 378.121 197.609C377.171 197.948 376.266 198.117 375.406 198.117C374.547 198.117 373.889 198.033 373.434 197.863C372.991 197.681 372.626 197.434 372.34 197.121C371.116 195.793 371.122 193.833 372.359 191.242C372.893 190.096 373.701 189.055 374.781 188.117C375.862 187.167 376.812 186.457 377.633 185.988C379.221 185.077 380.712 184.621 382.105 184.621C383.486 184.621 384.208 185.051 384.273 185.91C384.365 187.303 382.672 188.82 379.195 190.461C377.919 191.06 376.311 191.678 374.371 192.316C373.603 193.566 373.219 194.589 373.219 195.383C373.219 196.164 373.421 196.724 373.824 197.062C374.241 197.388 374.84 197.551 375.621 197.551C376.415 197.551 377.268 197.382 378.18 197.043C379.104 196.704 379.964 196.275 380.758 195.754C381.565 195.233 382.294 194.667 382.945 194.055C383.596 193.443 384.169 192.857 384.664 192.297C385.172 191.737 385.582 191.255 385.895 190.852C386.22 190.435 386.441 190.174 386.559 190.07L386.969 190.402C386.799 190.546 386.539 190.839 386.188 191.281C385.849 191.724 385.413 192.232 384.879 192.805C384.358 193.365 383.753 193.957 383.062 194.582C382.385 195.207 381.63 195.786 380.797 196.32ZM374.82 191.633C378.753 190.253 381.285 188.879 382.418 187.512C382.796 187.056 382.984 186.613 382.984 186.184C382.984 185.454 382.646 185.09 381.969 185.09C380.771 185.09 379.273 186.138 377.477 188.234C376.227 189.693 375.341 190.826 374.82 191.633ZM394.215 198.039C392.913 198.039 392.262 197.635 392.262 196.828C392.262 196.164 392.639 195.331 393.395 194.328L394.625 192.766L394.43 192.688C392.242 195.383 390.178 197.076 388.238 197.766C387.704 197.948 387.242 198.039 386.852 198.039C385.25 198.039 384.449 197.186 384.449 195.48C384.449 193.475 385.25 191.561 386.852 189.738C389.221 186.978 391.604 185.344 394 184.836C394.716 184.693 395.328 184.621 395.836 184.621C396.344 184.621 396.741 184.66 397.027 184.738C397.327 184.803 397.587 184.901 397.809 185.031C398.277 185.331 398.512 185.702 398.512 186.145C398.512 186.574 398.434 186.984 398.277 187.375L400.191 185.012C400.543 185.116 400.868 185.168 401.168 185.168C401.936 185.168 402.49 185.142 402.828 185.09L396.246 193.02C394.684 194.842 393.902 196.125 393.902 196.867C393.902 197.284 394.15 197.492 394.645 197.492C395.139 197.492 395.706 197.342 396.344 197.043C396.995 196.743 397.639 196.359 398.277 195.891C398.915 195.422 399.534 194.901 400.133 194.328C400.745 193.755 401.305 193.195 401.812 192.648C402.333 192.102 402.789 191.594 403.18 191.125L404.117 190.07L404.527 190.402L403.531 191.535C399.781 195.871 396.676 198.039 394.215 198.039ZM388.805 191.008C386.969 193.234 386.051 195.057 386.051 196.477C386.051 197.128 386.344 197.453 386.93 197.453C388.831 197.453 391.572 195.35 395.152 191.145L396.793 189.172C397.574 187.987 397.965 187.128 397.965 186.594C397.965 185.682 397.509 185.227 396.598 185.227C395.361 185.227 393.583 186.281 391.266 188.391C390.471 189.12 389.651 189.992 388.805 191.008ZM407.379 196.477C407.379 197.076 407.633 197.375 408.141 197.375C408.661 197.375 409.228 197.219 409.84 196.906C410.465 196.594 411.096 196.197 411.734 195.715C412.385 195.233 413.023 194.699 413.648 194.113L415.348 192.414C415.868 191.88 416.318 191.398 416.695 190.969L417.496 190.07L417.887 190.402C417.639 190.624 417.307 190.969 416.891 191.438L415.484 193C412.307 196.359 409.573 198.039 407.281 198.039C406.539 198.039 405.94 197.857 405.484 197.492C405.042 197.128 404.82 196.639 404.82 196.027C404.82 194.087 407.646 191.223 413.297 187.434C410.536 186.978 408.629 186.516 407.574 186.047C406.715 187.818 405.393 189.621 403.609 191.457C403.193 191.887 402.939 192.121 402.848 192.16C402.743 192.199 402.678 192.232 402.652 192.258C402.626 192.271 402.607 192.232 402.594 192.141C402.581 192.049 402.581 191.984 402.594 191.945C402.607 191.893 402.633 191.841 402.672 191.789C403.284 191.099 403.85 190.435 404.371 189.797C405.582 188.286 406.474 186.945 407.047 185.773C406.578 185.474 406.311 185.155 406.246 184.816C406.181 184.478 406.181 184.165 406.246 183.879C406.324 183.579 406.441 183.312 406.598 183.078C406.936 182.57 407.327 182.316 407.77 182.316C408.59 182.316 409 182.616 409 183.215C409 183.514 408.941 183.768 408.824 183.977L408.473 184.582C408.238 184.882 408.121 185.227 408.121 185.617C408.121 185.852 408.616 186.073 409.605 186.281C410.608 186.49 411.318 186.633 411.734 186.711C412.646 186.88 413.368 186.978 413.902 187.004C414.267 187.017 414.449 187.115 414.449 187.297C414.449 187.414 414.234 187.642 413.805 187.98C413.388 188.319 412.926 188.729 412.418 189.211C411.91 189.693 411.415 190.201 410.934 190.734C410.452 191.255 409.996 191.789 409.566 192.336C409.137 192.883 408.759 193.41 408.434 193.918C407.73 195.012 407.379 195.865 407.379 196.477ZM418.062 197.629C417.711 197.564 417.32 197.531 416.891 197.531C416.201 197.531 415.595 197.596 415.074 197.727L421.852 188.039C422.698 186.854 423.134 186.151 423.16 185.93C423.212 185.5 423.076 185.285 422.75 185.285C422.268 185.285 421.07 186.477 419.156 188.859L417.906 190.402C417.802 190.454 417.691 190.428 417.574 190.324C417.47 190.207 417.444 190.122 417.496 190.07C417.874 189.667 418.297 189.159 418.766 188.547C419.247 187.922 419.749 187.323 420.27 186.75C421.546 185.331 422.607 184.621 423.453 184.621C424.885 184.621 425.341 185.357 424.82 186.828C424.716 187.141 424.488 187.544 424.137 188.039L420.035 193.742L420.133 193.957C423.414 190.363 425.745 187.987 427.125 186.828C428.44 185.734 429.417 185.096 430.055 184.914C430.706 184.719 431.233 184.621 431.637 184.621C432.053 184.621 432.405 184.68 432.691 184.797C432.991 184.914 433.232 185.064 433.414 185.246C433.753 185.585 433.915 185.995 433.902 186.477C433.902 186.945 433.811 187.427 433.629 187.922C433.46 188.417 433.167 189.003 432.75 189.68C431.878 191.073 430.406 192.889 428.336 195.129C427.477 196.027 427.027 196.555 426.988 196.711C426.949 196.854 426.93 196.965 426.93 197.043C426.93 197.342 427.327 197.492 428.121 197.492C428.928 197.492 429.677 197.329 430.367 197.004C431.07 196.665 431.754 196.242 432.418 195.734C433.095 195.227 433.733 194.673 434.332 194.074C434.944 193.462 435.491 192.883 435.973 192.336C436.454 191.776 436.858 191.294 437.184 190.891C437.509 190.474 437.73 190.201 437.848 190.07L438.258 190.402C438.128 190.546 437.893 190.832 437.555 191.262C437.216 191.691 436.793 192.186 436.285 192.746C435.79 193.306 435.224 193.898 434.586 194.523C433.961 195.148 433.297 195.721 432.594 196.242C430.953 197.44 429.469 198.039 428.141 198.039C426.969 198.039 426.155 197.746 425.699 197.16C425.556 196.978 425.484 196.763 425.484 196.516C425.484 196.268 425.517 195.988 425.582 195.676C425.66 195.35 425.836 194.94 426.109 194.445C426.721 193.391 427.587 192.232 428.707 190.969C429.84 189.706 430.582 188.853 430.934 188.41C431.285 187.967 431.565 187.583 431.773 187.258C432.164 186.633 432.359 186.151 432.359 185.812C432.359 185.344 432.047 185.109 431.422 185.109C430.133 185.109 428.004 186.568 425.035 189.484C423.538 190.943 421.819 192.863 419.879 195.246L418.062 197.629ZM448.043 180.344C447.861 180.513 447.652 180.65 447.418 180.754C447.184 180.845 446.917 180.891 446.617 180.891C446.318 180.891 446.057 180.78 445.836 180.559C445.628 180.324 445.523 180.064 445.523 179.777C445.523 179.491 445.576 179.237 445.68 179.016C445.784 178.794 445.927 178.599 446.109 178.43C446.487 178.039 446.897 177.844 447.34 177.844C447.796 177.844 448.128 177.967 448.336 178.215C448.557 178.449 448.668 178.71 448.668 178.996C448.668 179.283 448.609 179.536 448.492 179.758C448.388 179.979 448.238 180.174 448.043 180.344ZM435.641 196.887C435.641 197.29 436.025 197.492 436.793 197.492C437.561 197.492 438.284 197.316 438.961 196.965C439.651 196.613 440.341 196.177 441.031 195.656C441.734 195.122 442.411 194.543 443.062 193.918L444.82 192.16C445.341 191.613 445.771 191.145 446.109 190.754C446.448 190.35 446.65 190.116 446.715 190.051L447.105 190.402C446.975 190.533 446.728 190.812 446.363 191.242C446.012 191.659 445.569 192.154 445.035 192.727C444.501 193.286 443.902 193.879 443.238 194.504C442.574 195.129 441.878 195.702 441.148 196.223C439.469 197.434 437.997 198.039 436.734 198.039C435.927 198.039 435.283 197.896 434.801 197.609C434.319 197.31 434.078 196.971 434.078 196.594C434.078 196.216 434.117 195.878 434.195 195.578C434.273 195.279 434.417 194.921 434.625 194.504C434.833 194.087 435.126 193.599 435.504 193.039C435.868 192.479 436.35 191.809 436.949 191.027C437.535 190.246 438.251 189.341 439.098 188.312L442.105 184.758C442.262 184.797 442.581 184.816 443.062 184.816H443.98C444.319 184.816 444.592 184.803 444.801 184.777C440.491 189.921 438.069 192.85 437.535 193.566C436.988 194.27 436.585 194.823 436.324 195.227C435.868 195.917 435.641 196.47 435.641 196.887ZM447.281 197.629C446.93 197.564 446.539 197.531 446.109 197.531C445.419 197.531 444.814 197.596 444.293 197.727L451.07 188.039C451.917 186.854 452.353 186.151 452.379 185.93C452.431 185.5 452.294 185.285 451.969 185.285C451.487 185.285 450.289 186.477 448.375 188.859L447.125 190.402C447.021 190.454 446.91 190.428 446.793 190.324C446.689 190.207 446.663 190.122 446.715 190.07C447.092 189.667 447.516 189.159 447.984 188.547C448.466 187.922 448.967 187.323 449.488 186.75C450.764 185.331 451.826 184.621 452.672 184.621C454.104 184.621 454.56 185.357 454.039 186.828C453.935 187.141 453.707 187.544 453.355 188.039L449.254 193.742L449.352 193.957C452.633 190.363 454.964 187.987 456.344 186.828C457.659 185.734 458.635 185.096 459.273 184.914C459.924 184.719 460.452 184.621 460.855 184.621C461.272 184.621 461.624 184.68 461.91 184.797C462.21 184.914 462.451 185.064 462.633 185.246C462.971 185.585 463.134 185.995 463.121 186.477C463.121 186.945 463.03 187.427 462.848 187.922C462.678 188.417 462.385 189.003 461.969 189.68C461.096 191.073 459.625 192.889 457.555 195.129C456.695 196.027 456.246 196.555 456.207 196.711C456.168 196.854 456.148 196.965 456.148 197.043C456.148 197.342 456.546 197.492 457.34 197.492C458.147 197.492 458.896 197.329 459.586 197.004C460.289 196.665 460.973 196.242 461.637 195.734C462.314 195.227 462.952 194.673 463.551 194.074C464.163 193.462 464.71 192.883 465.191 192.336C465.673 191.776 466.077 191.294 466.402 190.891C466.728 190.474 466.949 190.201 467.066 190.07L467.477 190.402C467.346 190.546 467.112 190.832 466.773 191.262C466.435 191.691 466.012 192.186 465.504 192.746C465.009 193.306 464.443 193.898 463.805 194.523C463.18 195.148 462.516 195.721 461.812 196.242C460.172 197.44 458.688 198.039 457.359 198.039C456.188 198.039 455.374 197.746 454.918 197.16C454.775 196.978 454.703 196.763 454.703 196.516C454.703 196.268 454.736 195.988 454.801 195.676C454.879 195.35 455.055 194.94 455.328 194.445C455.94 193.391 456.806 192.232 457.926 190.969C459.059 189.706 459.801 188.853 460.152 188.41C460.504 187.967 460.784 187.583 460.992 187.258C461.383 186.633 461.578 186.151 461.578 185.812C461.578 185.344 461.266 185.109 460.641 185.109C459.352 185.109 457.223 186.568 454.254 189.484C452.757 190.943 451.038 192.863 449.098 195.246L447.281 197.629ZM470.934 201.281C476.402 198.521 481.096 194.784 485.016 190.07L485.406 190.402C481.253 195.428 476.181 199.354 470.191 202.18L466.715 206.34C463.785 209.673 461.402 211.763 459.566 212.609C458.434 213.117 457.125 213.371 455.641 213.371C454.82 213.371 454.228 213.091 453.863 212.531C453.616 212.154 453.609 211.691 453.844 211.145C454.078 210.611 454.404 210.122 454.82 209.68C455.224 209.237 455.771 208.762 456.461 208.254C457.151 207.746 458.01 207.199 459.039 206.613C461.148 205.415 463.987 204.061 467.555 202.551L475.426 192.766L475.27 192.688C472.887 195.396 470.751 197.082 468.863 197.746C468.303 197.941 467.822 198.039 467.418 198.039C465.842 198.039 465.029 197.186 464.977 195.48C464.977 193.462 465.751 191.548 467.301 189.738C470.1 186.327 473.147 184.621 476.441 184.621C477.301 184.621 477.978 184.764 478.473 185.051C479.28 185.507 479.462 186.281 479.02 187.375L480.855 185.012C481.233 185.116 481.578 185.168 481.891 185.168C482.646 185.168 483.193 185.142 483.531 185.09L470.934 201.281ZM478.707 186.398C478.681 185.617 478.095 185.227 476.949 185.227C475.725 185.227 473.98 186.294 471.715 188.43C470.947 189.172 470.12 190.096 469.234 191.203C467.451 193.417 466.572 195.161 466.598 196.438C466.624 196.815 466.708 197.082 466.852 197.238C466.995 197.382 467.236 197.453 467.574 197.453C467.926 197.453 468.375 197.349 468.922 197.141C469.469 196.919 470.094 196.555 470.797 196.047C472.424 194.888 474.143 193.254 475.953 191.145L477.477 189.289C478.297 188.091 478.707 187.128 478.707 186.398ZM466.871 203.391C460.217 206.307 456.266 208.612 455.016 210.305C454.573 210.917 454.352 211.503 454.352 212.062C454.352 212.206 454.475 212.368 454.723 212.551C454.957 212.746 455.289 212.844 455.719 212.844C456.148 212.844 456.578 212.785 457.008 212.668C457.438 212.564 457.887 212.375 458.355 212.102C458.824 211.841 459.332 211.477 459.879 211.008C460.426 210.552 461.044 209.973 461.734 209.27C462.411 208.579 463.173 207.753 464.02 206.789L466.871 203.391Z" fill="#003464"/>
</svg>
